<svg id="CRASH_SECTION_cache93" fill="none" fill-rule="evenodd" height="100%" viewBox="0 0 32 32" width="100%" xmlns="http://www.w3.org/2000/svg" fit="" preserveAspectRatio="xMidYMid meet" focusable="false"><path d="M9 2L2 9v14l7 7h7l-3.5-4h-1.75L6 21.25v-10.5L10.75 6h1.75L16 2zm10.5 0L16 6h5.25L26 10.75v10.5L21.25 26H16l3.5 4H23l7-7V9l-7-7z" fill="#757575"></path><path d="M16 23l-3.5-3.5 3.504-3.504-3.5-3.5L16 9h-3.5L9 12.5v7l3.5 3.5z" fill="#616161"></path><path d="M19.5 9L16 12.5l3.504 3.504-3.5 3.5L19.5 23l3.5-3.5v-7z" fill="#616161"></path></svg>
