<svg xmlns="http://www.w3.org/2000/svg" viewBox="0 0 1000 1000">
  <title>glance-girl-logo</title>
  <g>
    <path d="M654.5,507.4l-78,58.3a3.7,3.7,0,0,1-2.1.7,5,5,0,0,1-4.1-1.2,156.7,156.7,0,0,0-203.8,0c-4,3.4-10-.6-8.2-5.5a117.5,117.5,0,0,1,202.6-31l90-28.1A3.9,3.9,0,0,1,654.5,507.4ZM500.5,548.9c-20.8,0-38.5,17.8-45.9,43l37.9,19.5a7.4,7.4,0,0,1,0,13.2l-37.9,19.5c7.4,25.2,25.2,43,45.9,43,27.4,0,49.6-30.9,49.6-69.1S528,548.9,500.5,548.9ZM255.6,559.7c-7.8-44.5-27.8-76.3-51.2-76.3-17.5,0-33.1,17.7-43.1,45.2l-41.9-28.1c-1.9-1.3-3.2,4.2-1.6,6.8L154,565.7a1.3,1.3,0,0,0,1,.7c.6.2,1.3-.1,1.9-1.2,12.8-23.5,29.3-37.6,47.4-37.6,13.8,0,26.7,8.2,37.7,22.5a12.2,12.2,0,0,0-4.9-1.1c-11.7,0-21.8,17.8-25.9,43l24.7,22.5a4.9,4.9,0,0,1,0,7.2l-24.7,22.5c4.2,25.2,14.2,43,25.9,43,15.5,0,28-30.9,28-69.1,0-21.4-3.9-40.5-10.1-53.2A9,9,0,0,0,255.6,559.7ZM489,827.2c-14.4-25.6-42.8-43.1-75.6-43.1A87.9,87.9,0,0,0,357,804.3a87.9,87.9,0,0,0-56.4-20.2,89.3,89.3,0,0,0-30.8,5.5,373.6,373.6,0,0,0,162.8,77.8C456.7,859.4,476.7,845.2,489,827.2Z" fill="#2f364a"/>
    <path d="M257.1,666.7v59.5a16.7,16.7,0,0,0,16.7,16.7h67a16.7,16.7,0,0,1,16.7,16.7v44.3l-.5.4a87.9,87.9,0,0,0-56.4-20.2,89.3,89.3,0,0,0-30.8,5.5,377,377,0,0,1-84-97.7c-6.7-39.3-12.6-76.8-12.6-108.6a373.1,373.1,0,0,1,2.5-43.2c8.8-8,18.4-12.5,28.6-12.5,13.8,0,26.7,8.2,37.7,22.5a12.2,12.2,0,0,0-4.9-1.1c-11.7,0-21.8,17.8-25.9,43l-6.8-6.2a4.9,4.9,0,0,0-8.1,3.6v57.5a4.9,4.9,0,0,0,8.1,3.6l6.8-6.2c4.2,25.2,14.2,43,25.9,43C245,687.1,252,679.3,257.1,666.7Zm415.6-43.8A368.4,368.4,0,0,1,548.6,601a94.7,94.7,0,0,1,1.6,17.1c0,33.2-16.8,60.9-39.2,67.5a367.8,367.8,0,0,0,138.4,29.6A367,367,0,0,1,672.7,622.9ZM431.4,532a156.2,156.2,0,0,0-64.9,33.2c-4,3.4-10-.6-8.2-5.5a117.8,117.8,0,0,1,44-55.9,367.9,367.9,0,0,1-95-205.3A369.4,369.4,0,0,0,184.9,491.1c6.1-5,12.6-7.7,19.5-7.7,9.4,0,18.3,5.2,26,14.2a367.4,367.4,0,0,1,56.8-131.7c5.9,109.8,59.7,206.8,140.9,270.6V590.4a7.4,7.4,0,0,1,10.8-6.6l15.7,8.1c3.5-11.9,9.3-22.1,16.7-29.6A370.6,370.6,0,0,1,431.4,532ZM445,649.1c5.2,3.6,10.5,7,15.9,10.4a79.1,79.1,0,0,1-6.3-15.3Z" fill="#fa7"/>
    <path d="M175.8,540a373.1,373.1,0,0,0-2.5,43.2c0,31.9,5.9,69.4,12.6,108.7a372.7,372.7,0,0,1-51.2-157.3L154,565.7a1.3,1.3,0,0,0,1,.7c.6.2,1.3-.1,1.9-1.2C162.5,554.9,168.9,546.3,175.8,540ZM508,125c-207.1,0-375,167.9-375,375,0,3.3.1,6.6.2,9.9l28,18.8c6.1-16.7,14.2-29.8,23.6-37.5A369.4,369.4,0,0,1,307.4,298.5a367.9,367.9,0,0,0,95,205.3A117.3,117.3,0,0,1,561,528.6l90-28.1a3.9,3.9,0,0,1,3.5,6.8l-78,58.3a3.7,3.7,0,0,1-2.1.7,5,5,0,0,1-4.1-1.2A156.7,156.7,0,0,0,431.4,532a370.6,370.6,0,0,0,39.9,30.3c8.2-8.4,18.3-13.3,29.2-13.3,23.2,0,42.6,22.1,48,52a368.4,368.4,0,0,0,124.1,21.9,371,371,0,0,0-16.1,221.5C789.8,786.9,883,654.3,883,500,883,292.9,715.1,125,508,125Z" fill="#ffe877"/>
    <path d="M204.4,585.7l6.8,6.2h0l24.7,22.5a4.9,4.9,0,0,1,0,7.2l-24.7,22.5-6.8,6.2a4.9,4.9,0,0,1-8.1-3.6V589.3A4.9,4.9,0,0,1,204.4,585.7ZM649.3,715.1a367.8,367.8,0,0,1-138.4-29.6,36.4,36.4,0,0,1-10.4,1.5c-16.2,0-30.6-10.9-39.6-27.6-5.4-3.3-10.7-6.8-15.8-10.4l9.6-4.9,37.9-19.5a7.4,7.4,0,0,0,0-13.2l-37.9-19.5h0L439,583.8a7.4,7.4,0,0,0-10.8,6.6v46.1c-81.2-63.8-135-160.8-140.9-270.6a367.4,367.4,0,0,0-56.8,131.7h0c11.5,13.4,20.6,35.4,25.2,62a9,9,0,0,1-.5,5.2c6.2,12.7,10.1,31.8,10.1,53.2,0,19-3.1,36.2-8.1,48.6h0v59.5a16.7,16.7,0,0,0,16.7,16.7h67a16.7,16.7,0,0,1,16.7,16.7v44.3a87.9,87.9,0,0,1,55.9-19.8c32.7,0,61.2,17.4,75.6,43.1-12.3,18-32.2,32.3-56.4,40.2l-10.5-2.3a376.5,376.5,0,0,0,234.5-20.7,372.4,372.4,0,0,1-7.3-129.3Z" fill="#fff"/>
  </g>
</svg>
